# xmcd
#
# Track frame offsets: 
#        150
#        19363
#        41189
#        58093
#        76429
#        100201
#        131339
#
# Disc length: 2114 seconds
#
# Revision: 0
# Processed by: cddbd v1.5.2PL0 Copyright (c) Steve Scherf et al.
# Submitted via: ExactAudioCopy v0.99pb5
#
DISCID=5b084007
DTITLE=Kim Churchill - Montreal Attic Recordings
DYEAR=2011
DGENRE=Blues
TTITLE0=Leaf Upon An Autumn Breeze
TTITLE1=Shields
TTITLE2=Rusted Walls
TTITLE3=Tides
TTITLE4=Sarah
TTITLE5=Truest Intentions
TTITLE6=Coded in Concrete
EXTD=
EXTT0=
EXTT1=
EXTT2=
EXTT3=
EXTT4=
EXTT5=
EXTT6=
PLAYORDER=
